# xmcd
#
# Track frame offsets: 
#        150
#        11946
#        21216
#        29701
#        58281
#        73789
#
# Disc length: 1127 seconds
#
# Revision: 0
# Processed by: cddbd v1.5.2PL0 Copyright (c) Steve Scherf et al.
# Submitted via: ExactAudioCopy v1.3
#
DISCID=58046506
DTITLE=水田マル - MAGIA PAIDIÁ
DYEAR=2020
DGENRE=
TTITLE0=契約の唄 入学の儀
TTITLE1=大地より芽を生やす練習唄~ロコポコ族の伝承より~
TTITLE2=晴れを導く唄 シュンネペイア
TTITLE3=新たなる魔術の探索唄 Enurf ó Ecorf
TTITLE4=対厄災魔法唄 守 白鯨の城
TTITLE5=贄の唄 祈
EXTD=
EXTT0=
EXTT1=
EXTT2=
EXTT3=
EXTT4=
EXTT5=
PLAYORDER=
